HIERARCHY
ROOT RootJoint
{
    OFFSET   0.000000   0.000000   0.000000
    CHANNELS 6 Xposition Yposition Zposition Xrotation Yrotation Zrotation
    JOINT pelvis_lowerback
    {
        OFFSET   0.000000   0.093605   0.000000
        CHANNELS 3 Xrotation Yrotation Zrotation
        JOINT lowerback_torso
        {
            OFFSET   0.000000   0.100000   0.000000
            CHANNELS 3 Xrotation Yrotation Zrotation
            JOINT torso_head
            {
                OFFSET   0.000000   0.282350   0.000000
                CHANNELS 3 Xrotation Yrotation Zrotation
                End Site
                {
                    OFFSET   0.000000   0.192650   0.000000
                }
            }
            JOINT rTorso_Clavicle
            {
                OFFSET  -0.001000   0.157500   0.000000
                CHANNELS 3 Xrotation Yrotation Zrotation
                JOINT rShoulder
                {
                    OFFSET  -0.117647   0.000000   0.000000
                    CHANNELS 3 Xrotation Yrotation Zrotation
                    JOINT rElbow
                    {
                        OFFSET  -0.245000   0.000000   0.000000
                        CHANNELS 3 Xrotation Yrotation Zrotation
                        JOINT rWrist
                        {
                            OFFSET  -0.240000   0.000000   0.000000
                            CHANNELS 3 Xrotation Yrotation Zrotation
                            End Site
                            {
                                OFFSET  -0.116353  -0.002500   0.000000
                            }
                        }
                    }
                }
            }
            JOINT lTorso_Clavicle
            {
                OFFSET   0.001000   0.157500   0.000000
                CHANNELS 3 Xrotation Yrotation Zrotation
                JOINT lShoulder
                {
                    OFFSET   0.117647   0.000000   0.000000
                    CHANNELS 3 Xrotation Yrotation Zrotation
                    JOINT lElbow
                    {
                        OFFSET   0.245000   0.000000   0.000000
                        CHANNELS 3 Xrotation Yrotation Zrotation
                        JOINT lWrist
                        {
                            OFFSET   0.240000   0.000000   0.000000
                            CHANNELS 3 Xrotation Yrotation Zrotation
                            End Site
                            {
                                OFFSET   0.116353  -0.002500   0.000000
                            }
                        }
                    }
                }
            }
        }
    }
    JOINT rHip
    {
        OFFSET  -0.100000  -0.051395   0.000000
        CHANNELS 3 Xrotation Yrotation Zrotation
        JOINT rKnee
        {
            OFFSET   0.000000  -0.410000   0.000000
            CHANNELS 3 Xrotation Yrotation Zrotation
            JOINT rAnkle
            {
                OFFSET   0.000000  -0.390000   0.000000
                CHANNELS 3 Xrotation Yrotation Zrotation
                JOINT rToeJoint
                {
                    OFFSET   0.000000  -0.050000   0.130000
                    CHANNELS 3 Xrotation Yrotation Zrotation
                    End Site
                    {
                        OFFSET  -0.010000   0.002000   0.060000
                    }
                }
            }
        }
    }
    JOINT lHip
    {
        OFFSET   0.100000  -0.051395   0.000000
        CHANNELS 3 Xrotation Yrotation Zrotation
        JOINT lKnee
        {
            OFFSET   0.000000  -0.410000   0.000000
            CHANNELS 3 Xrotation Yrotation Zrotation
            JOINT lAnkle
            {
                OFFSET   0.000000  -0.390000   0.000000
                CHANNELS 3 Xrotation Yrotation Zrotation
                JOINT lToeJoint
                {
                    OFFSET   0.000000  -0.050000   0.130000
                    CHANNELS 3 Xrotation Yrotation Zrotation
                    End Site
                    {
                        OFFSET   0.010000   0.002000   0.060000
                    }
                }
            }
        }
    }
}
MOTION
Frames: 8
Frame Time:   0.008333
 -0.531633   0.867107   1.559556 -152.920606  46.121783 161.306266  15.999274   4.665486  -3.942271   2.104557   2.421115  -0.910962   2.147241  -3.202532   2.750017   0.406768  -6.443797   0.095454   3.656056   0.449385  42.249825   0.000967  54.509441  -0.000974   1.615155   4.883543 -13.355019   7.362050  12.143922  -3.865354  10.279063   6.574944 -52.314447  -0.004202 -25.242174  -0.003665  -1.190718  -1.665450   9.681157  12.158882  -0.799512  -2.915585  57.423679  -0.002992  -0.020975  -2.755901  -0.514468   2.174573 -28.194652   0.003723  -0.010152 -18.100967  -3.831339   4.179227  30.426229  -0.000277   0.026338 -14.148282   6.400507   2.217910  -1.595856   0.002223  -0.003463
 -0.522567   0.863797   1.547938 -152.570488  46.347487 160.873274  16.137702   4.574837  -4.012139   2.086275   2.514981  -0.957922   2.144522  -3.143536   2.822257   0.386932  -6.551769   0.078019   3.671980   0.318429  42.284594   0.004303  53.927934  -0.004233   1.658845   5.259362 -13.433783   7.426892  12.071679  -3.974712  10.591659   6.497664 -52.392025  -0.004519 -24.981413  -0.004696  -1.281650  -1.524549   9.701666  11.577377  -0.778187  -3.215729  60.415758  -0.005543  -0.030289  -2.373492  -0.756150   2.351333 -25.693321   0.007445  -0.027182 -18.166621  -4.030152   3.937847  31.212039   0.001574   0.016990 -13.898297   6.247297   2.613618  -1.442622   0.001635  -0.003724
 -0.513512   0.859862   1.536188 -152.097071  46.526371 160.339565  16.314682   4.436923  -4.042499   2.126231   2.566369  -0.971524   2.158766  -3.083409   2.897327   0.386071  -6.670885   0.091558   3.703998   0.169996  42.312716   0.006676  53.345706  -0.007051   1.664628   5.447079 -13.526678   7.457881  11.967797  -4.111131  10.858149   6.400537 -52.474837  -0.004623 -24.742211  -0.005473  -1.365321  -1.377299   9.675552  10.981245  -0.757599  -3.530272  63.493724  -0.008436  -0.038525  -2.014888  -0.986538   2.516844 -23.490781   0.008926  -0.038981 -18.082434  -4.212450   3.677549  32.234799   0.003698   0.008312 -13.651457   6.107192   2.984178  -1.296634   0.001196  -0.003878
 -0.504403   0.855341   1.524349 -151.615843  46.669628 159.777212  16.467376   4.258794  -4.035907   2.172199   2.567564  -0.952964   2.178971  -3.027190   2.972320   0.408920  -6.812353   0.129346   3.756894   0.011997  42.351532   0.008291  52.788238  -0.009494   1.650186   5.538408 -13.596934   7.471110  11.854907  -4.249740  11.093178   6.297005 -52.558083  -0.004536 -24.524735  -0.005958  -1.440169  -1.260738   9.625325  10.366354  -0.733317  -3.826508  66.426152  -0.011004  -0.044174  -1.677485  -1.201357   2.672129 -21.481371   0.008940  -0.046629 -17.887104  -4.370983   3.423018  33.271105   0.005530   0.001557 -13.416678   5.978045   3.330344  -1.156947   0.000885  -0.003920
 -0.495248   0.850225   1.512462 -151.153214  46.790922 159.206515  16.591581   4.050601  -4.000446   2.207842   2.526952  -0.908533   2.197944  -2.975212   3.045334   0.449685  -6.970572   0.183058   3.825323  -0.151298  42.398850   0.009361  52.258649  -0.011544   1.623652   5.572937 -13.646735   7.470634  11.736587  -4.380125  11.301011   6.190620 -52.636621  -0.004307 -24.327293  -0.006201  -1.506639  -1.177689   9.566739   9.728022  -0.703923  -4.103152  69.169947  -0.013154  -0.047595  -1.362310  -1.401519   2.817714 -19.644139   0.008040  -0.051108 -17.609763  -4.509643   3.179190  34.277633   0.006989  -0.003510 -13.195431   5.858855   3.653759  -1.026002   0.000674  -0.003870
 -0.486057   0.844500   1.500550 -150.712526  46.898136 158.632720  16.691849   3.820356  -3.943043   2.231549   2.453161  -0.843931   2.214157  -2.927225   3.115710   0.502517  -7.138774   0.245866   3.903704  -0.316132  42.450901   0.010028  51.757558  -0.013176   1.589112   5.569112 -13.683027   7.458272  11.613812  -4.497589  11.483954   6.082855 -52.707121  -0.003983 -24.148313  -0.006256  -1.565372  -1.126084   9.509319   9.069141  -0.669338  -4.362267  71.723407  -0.014889  -0.049301  -1.068563  -1.588042   2.954162 -17.963942   0.006622  -0.053216 -17.269483  -4.632034   2.947147  35.245011   0.008097  -0.007251 -12.987441   5.748686   3.955887  -0.904061   0.000536  -0.003759
 -0.476833   0.838148   1.488633 -150.292363  46.995559 158.057492  16.773139   3.574352  -3.869196   2.245187   2.353396  -0.763813   2.227759  -2.882920   3.183220   0.563071  -7.311805   0.313050   3.987876  -0.479745  42.504853   0.010391  51.284759  -0.014391   1.549202   5.538298 -13.711144   7.435658  11.487523  -4.600194  11.644237   5.974786 -52.767862  -0.003608 -23.986219  -0.006169  -1.617024  -1.102972   9.458600   8.395482  -0.630058  -4.605401  74.095228  -0.016229  -0.049717  -0.795003  -1.761866   3.082029 -16.427349   0.004961  -0.053567 -16.881062  -4.740952   2.727019  36.170946   0.008898  -0.009961 -12.792094   5.646722   4.238090  -0.790766   0.000450  -0.003609
 -0.468976   0.833674   1.478403 -149.381300  47.089496 157.647332  17.620385   3.201563  -4.305973   2.209257   2.271325  -0.914947   2.033521  -2.835196   3.176944   0.513621  -7.249077   0.752178   3.862596  -0.778170  42.543224   0.010714  50.385137  -0.017765   1.600746   5.713578 -13.710102   7.229547  11.077380  -4.712245  11.595446   5.652274 -52.688529  -0.003910 -23.699588  -0.008269  -1.675756  -0.898836   9.416602   7.547538  -0.507095  -5.237906  76.694047  -0.019386  -0.047660  -1.211147  -2.233640   3.050337 -14.997148   0.004404  -0.054160 -17.180679  -4.712358   2.097394  39.168702   0.010017  -0.021536 -12.460746   5.562642   4.706820  -0.624599  -0.000297  -0.003962
